<svg width="12" height="12" viewBox="0 0 12 12" fill="none" xmlns="http://www.w3.org/2000/svg">
<path d="M8.7 3.404L9.648 3.692C9.144 5.156 8.496 6.42 7.704 7.484C6.92 8.548 5.976 9.444 4.872 10.172C3.776 10.9 2.5 11.5 1.044 11.972C1.012 11.892 0.96 11.8 0.888 11.696C0.824 11.592 0.752 11.484 0.672 11.372C0.6 11.26 0.532 11.172 0.468 11.108C1.892 10.692 3.136 10.148 4.2 9.476C5.264 8.796 6.168 7.96 6.912 6.968C7.656 5.968 8.252 4.78 8.7 3.404ZM3.24 3.476C3.68 4.756 4.272 5.908 5.016 6.932C5.768 7.948 6.688 8.808 7.776 9.512C8.864 10.216 10.132 10.74 11.58 11.084C11.508 11.148 11.428 11.232 11.34 11.336C11.26 11.448 11.18 11.56 11.1 11.672C11.028 11.784 10.968 11.88 10.92 11.96C9.44 11.576 8.148 11.008 7.044 10.256C5.948 9.496 5.016 8.572 4.248 7.484C3.48 6.388 2.848 5.14 2.352 3.74L3.24 3.476ZM0.6 2.96H11.448V3.836H0.6V2.96ZM5.52 0.92H6.444V3.488H5.52V0.92Z" fill="white"/>
</svg>
