<svg width="12" height="12" viewBox="0 0 12 12" fill="none" xmlns="http://www.w3.org/2000/svg">
<path d="M7.992 2.676L9.528 3.132C9.024 4.572 8.372 5.82 7.572 6.876C6.772 7.932 5.82 8.824 4.716 9.552C3.62 10.272 2.352 10.86 0.912004 11.316C0.864004 11.188 0.784004 11.036 0.672004 10.86C0.560004 10.684 0.444004 10.508 0.324004 10.332C0.212004 10.164 0.104004 10.024 3.54648e-06 9.912C1.384 9.544 2.596 9.044 3.636 8.412C4.676 7.78 5.556 6.996 6.276 6.06C6.996 5.116 7.568 3.988 7.992 2.676ZM3.348 2.772C3.756 3.964 4.32 5.032 5.04 5.976C5.76 6.92 6.648 7.72 7.704 8.376C8.768 9.032 10.008 9.52 11.424 9.84C11.312 9.952 11.188 10.096 11.052 10.272C10.924 10.448 10.8 10.624 10.68 10.8C10.56 10.984 10.464 11.144 10.392 11.28C8.896 10.896 7.608 10.336 6.528 9.6C5.448 8.856 4.532 7.952 3.78 6.888C3.036 5.824 2.412 4.596 1.908 3.204L3.348 2.772ZM0.216004 1.908H11.208V3.312H0.216004V1.908ZM4.944 -3.33786e-06H6.42V2.76H4.944V-3.33786e-06Z" fill="white"/>
</svg>
